<?xml version="1.0" encoding="UTF-8"?>
<!DOCTYPE svg PUBLIC "-//W3C//DTD SVG 1.1//EN" "http://www.w3.org/Graphics/SVG/1.1/DTD/svg11.dtd">
<!-- Creator: CorelDRAW X7 -->
<svg xmlns="http://www.w3.org/2000/svg" xml:space="preserve" width="71.3709mm" height="32.8965mm" version="1.1" style="shape-rendering:geometricPrecision; text-rendering:geometricPrecision; image-rendering:optimizeQuality; fill-rule:evenodd; clip-rule:evenodd"
viewBox="0 0 9393 4329"
 xmlns:xlink="http://www.w3.org/1999/xlink">
 <defs>
  <style type="text/css">
   <![CDATA[
    .fil1 {fill:#326293}
    .fil3 {fill:#FEFEFE;fill-rule:nonzero}
    .fil2 {fill:#373435;fill-rule:nonzero}
    .fil0 {fill:#3374A9;fill-rule:nonzero}
   ]]>
  </style>
 </defs>
 <g id="Layer_x0020_1">
  <metadata id="CorelCorpID_0Corel-Layer"/>
  <path class="fil0" d="M3846 3481l48 0 0 66c19,-25 41,-44 64,-57 24,-12 50,-19 77,-19 29,0 54,8 76,22 21,14 38,33 48,57 10,24 16,61 16,111l0 192 -49 0 0 -178c0,-42 -1,-71 -5,-85 -6,-25 -17,-43 -33,-56 -16,-12 -37,-18 -62,-18 -30,0 -56,9 -79,28 -24,19 -39,43 -46,71 -5,19 -7,52 -7,101l0 137 -48 0 0 -372z"/>
  <path id="1" class="fil0" d="M4596 3729l41 22c-14,25 -29,46 -47,62 -17,16 -37,28 -59,36 -22,9 -47,13 -75,13 -61,0 -110,-20 -144,-60 -35,-39 -52,-84 -52,-134 0,-47 14,-89 44,-126 37,-47 87,-71 150,-71 64,0 116,25 154,73 27,33 41,76 42,127l-341 0c1,43 15,78 42,105 28,28 61,42 101,42 19,0 38,-4 56,-10 18,-7 34,-15 47,-26 12,-11 26,-28 41,-53zm0 -100c-6,-25 -15,-46 -28,-61 -12,-15 -29,-28 -49,-37 -21,-9 -42,-14 -65,-14 -37,0 -69,12 -96,35 -19,17 -34,43 -44,77l282 0z"/>
  <polygon id="2" class="fil0" points="4781,3342 4829,3342 4829,3481 4906,3481 4906,3522 4829,3522 4829,3853 4781,3853 4781,3522 4715,3522 4715,3481 4781,3481 "/>
  <polygon id="3" class="fil0" points="4928,3481 4978,3481 5093,3750 5213,3481 5222,3481 5343,3750 5460,3481 5510,3481 5347,3853 5338,3853 5218,3586 5098,3853 5088,3853 "/>
  <path id="4" class="fil0" d="M5747 3471c58,0 106,21 145,63 34,37 52,82 52,134 0,52 -19,97 -55,136 -37,38 -84,58 -142,58 -58,0 -105,-20 -142,-58 -37,-39 -55,-84 -55,-136 0,-52 17,-96 52,-134 38,-42 87,-63 145,-63zm0 47c-40,0 -75,15 -104,44 -29,30 -43,65 -43,107 0,27 6,52 19,75 14,23 32,41 54,53 22,13 47,19 74,19 27,0 51,-6 74,-19 22,-12 40,-30 53,-53 13,-23 20,-48 20,-75 0,-42 -14,-77 -44,-107 -29,-29 -63,-44 -103,-44z"/>
  <path id="5" class="fil0" d="M6014 3481l50 0 0 54c15,-21 30,-37 47,-48 16,-10 34,-16 51,-16 14,0 28,5 43,13l-25 40c-10,-4 -19,-6 -26,-6 -16,0 -31,6 -46,19 -16,13 -27,34 -35,61 -6,22 -9,64 -9,129l0 126 -50 0 0 -372z"/>
  <polygon id="6" class="fil0" points="6246,3337 6294,3337 6294,3631 6470,3481 6541,3481 6333,3658 6553,3853 6484,3853 6294,3684 6294,3853 6246,3853 "/>
  <path id="7" class="fil0" d="M6989 3521l-32 32c-25,-25 -51,-37 -76,-37 -15,0 -29,5 -40,15 -11,10 -17,22 -17,36 0,12 5,24 14,34 9,12 29,25 58,40 36,18 61,36 74,53 12,17 19,37 19,58 0,31 -11,57 -33,78 -22,21 -49,32 -82,32 -21,0 -42,-5 -62,-14 -20,-10 -36,-22 -49,-39l31 -34c24,28 51,41 78,41 20,0 36,-6 50,-18 14,-12 21,-27 21,-43 0,-14 -5,-26 -14,-37 -9,-11 -29,-24 -61,-40 -34,-17 -57,-34 -69,-51 -13,-17 -19,-36 -19,-57 0,-29 10,-52 29,-71 20,-18 45,-28 75,-28 34,0 69,17 105,50z"/>
  <path id="8" class="fil0" d="M7392 3729l41 22c-14,25 -29,46 -47,62 -17,16 -37,28 -59,36 -22,9 -47,13 -75,13 -62,0 -110,-20 -144,-60 -35,-39 -53,-84 -53,-134 0,-47 15,-89 45,-126 37,-47 87,-71 149,-71 65,0 116,25 155,73 27,33 41,76 41,127l-340 0c1,43 15,78 42,105 27,28 61,42 101,42 19,0 38,-4 56,-10 18,-7 34,-15 46,-26 13,-11 27,-28 42,-53zm0 -100c-6,-25 -16,-46 -28,-61 -13,-15 -29,-28 -49,-37 -21,-9 -42,-14 -65,-14 -37,0 -69,12 -96,35 -19,17 -34,43 -44,77l282 0z"/>
  <path id="9" class="fil0" d="M7516 3481l50 0 0 54c15,-21 30,-37 47,-48 16,-10 33,-16 51,-16 13,0 28,5 43,13l-25 40c-10,-4 -19,-6 -26,-6 -16,0 -32,6 -47,19 -15,13 -26,34 -34,61 -6,22 -9,64 -9,129l0 126 -50 0 0 -372z"/>
  <polygon id="10" class="fil0" points="7713,3481 7763,3481 7890,3752 8016,3481 8068,3481 7896,3853 7886,3853 "/>
  <path id="11" class="fil0" d="M8158 3328c11,0 20,4 28,12 8,7 12,17 12,28 0,10 -4,20 -12,27 -8,8 -17,12 -28,12 -11,0 -20,-4 -28,-12 -8,-7 -12,-17 -12,-27 0,-11 4,-21 12,-28 8,-8 17,-12 28,-12zm-24 153l48 0 0 372 -48 0 0 -372z"/>
  <path id="12" class="fil0" d="M8649 3558l-38 24c-34,-44 -79,-66 -137,-66 -46,0 -84,15 -115,44 -30,29 -46,64 -46,106 0,27 7,53 22,76 13,24 33,43 57,56 25,13 52,20 82,20 56,0 101,-22 137,-65l38 25c-18,26 -42,47 -73,62 -30,14 -65,22 -104,22 -60,0 -109,-19 -148,-56 -40,-37 -59,-83 -59,-136 0,-36 9,-70 27,-100 19,-31 44,-55 76,-73 32,-17 68,-26 108,-26 25,0 49,4 72,12 24,7 43,17 60,29 16,12 30,27 41,46z"/>
  <path id="13" class="fil0" d="M9060 3729l41 22c-14,25 -29,46 -47,62 -18,16 -37,28 -59,36 -22,9 -47,13 -75,13 -62,0 -110,-20 -144,-60 -35,-39 -53,-84 -53,-134 0,-47 15,-89 45,-126 37,-47 87,-71 149,-71 65,0 116,25 155,73 27,33 41,76 41,127l-340 0c1,43 15,78 42,105 27,28 61,42 101,42 19,0 38,-4 56,-10 18,-7 34,-15 46,-26 13,-11 27,-28 42,-53zm0 -100c-6,-25 -16,-46 -28,-61 -13,-15 -29,-28 -50,-37 -20,-9 -41,-14 -64,-14 -37,0 -69,12 -96,35 -19,17 -34,43 -44,77l282 0z"/>
  <path id="14" class="fil0" d="M9393 3521l-31 32c-26,-25 -52,-37 -76,-37 -16,0 -30,5 -41,15 -11,10 -17,22 -17,36 0,12 5,24 14,34 9,12 29,25 58,40 36,18 61,36 74,53 12,17 19,37 19,58 0,31 -11,57 -33,78 -22,21 -49,32 -81,32 -22,0 -43,-5 -63,-14 -19,-10 -36,-22 -49,-39l31 -34c24,28 51,41 79,41 19,0 35,-6 49,-18 14,-12 21,-27 21,-43 0,-14 -5,-26 -14,-37 -9,-11 -29,-24 -61,-40 -34,-17 -57,-34 -69,-51 -13,-17 -19,-36 -19,-57 0,-29 10,-52 30,-71 19,-18 44,-28 74,-28 35,0 70,17 105,50z"/>
  <path class="fil1" d="M4676 4329c-2330,-738 -2992,-1849 -2557,-2533 979,-1537 3441,-1805 6663,-1376 -1842,-720 -7734,-679 -8686,1448 -577,1470 1512,2283 4580,2461z"/>
  <path class="fil2" d="M3915 3173l-247 0 0 -239 -7 0c-125,184 -295,277 -510,277 -114,0 -218,-26 -315,-79 -97,-52 -161,-125 -193,-218 -33,-92 -48,-211 -48,-359l0 -1008 275 0 0 901c0,144 7,247 21,310 14,62 50,113 108,153 58,41 128,61 208,61 105,0 202,-36 295,-108 92,-72 138,-222 138,-448l0 -869 275 0 0 1626z"/>
  <path id="1" class="fil2" d="M5435 1598l-94 254c-69,-40 -136,-60 -201,-60 -104,0 -182,47 -235,139 -53,92 -80,222 -80,388l0 854 -275 0 0 -1626 251 0 0 245 6 0c88,-188 203,-282 345,-282 94,0 189,30 283,88z"/>
  <path id="2" class="fil2" d="M7138 3173l-247 0 0 -239 -7 0c-125,184 -295,277 -511,277 -113,0 -218,-26 -315,-79 -96,-52 -161,-125 -193,-218 -32,-92 -48,-211 -48,-359l0 -1008 276 0 0 901c0,144 7,247 20,310 14,62 50,113 108,153 59,41 128,61 209,61 104,0 202,-36 294,-108 92,-72 138,-222 138,-448l0 -869 276 0 0 1626z"/>
  <path id="3" class="fil2" d="M8689 2002c-13,-89 -49,-155 -109,-200 -59,-44 -142,-66 -249,-66 -105,0 -190,17 -255,53 -65,36 -97,88 -97,156 0,65 26,111 77,138 52,28 154,62 306,101 172,44 300,84 386,117 85,33 151,81 198,142 48,60 72,145 72,253 0,145 -60,268 -178,366 -119,99 -276,149 -475,149 -206,0 -367,-43 -483,-131 -116,-87 -188,-218 -214,-393l274 -41c14,113 57,198 127,254 69,56 167,84 293,84 120,0 213,-25 277,-75 65,-51 97,-113 97,-185 0,-49 -15,-88 -44,-118 -30,-30 -67,-52 -112,-67 -44,-15 -144,-41 -299,-79 -231,-55 -383,-122 -457,-200 -75,-79 -111,-173 -111,-282 0,-136 54,-248 162,-336 108,-88 253,-132 436,-132 194,0 346,38 453,115 108,76 172,189 194,340l-269 37z"/>
  <path class="fil2" d="M3915 3173l-247 0 0 -239 -7 0c-125,184 -295,277 -510,277 -114,0 -218,-26 -315,-79 -97,-52 -161,-125 -193,-218 -33,-92 -48,-211 -48,-359l0 -1008 275 0 0 901c0,144 7,247 21,310 14,62 50,113 108,153 58,41 128,61 208,61 105,0 202,-36 295,-108 92,-72 138,-222 138,-448l0 -869 275 0 0 1626z"/>
  <path id="1" class="fil2" d="M5435 1598l-94 254c-69,-40 -136,-60 -201,-60 -104,0 -182,47 -235,139 -53,92 -80,222 -80,388l0 854 -275 0 0 -1626 251 0 0 245 6 0c88,-188 203,-282 345,-282 94,0 189,30 283,88z"/>
  <path id="2" class="fil2" d="M7138 3173l-247 0 0 -239 -7 0c-125,184 -295,277 -511,277 -113,0 -218,-26 -315,-79 -96,-52 -161,-125 -193,-218 -32,-92 -48,-211 -48,-359l0 -1008 276 0 0 901c0,144 7,247 20,310 14,62 50,113 108,153 59,41 128,61 209,61 104,0 202,-36 294,-108 92,-72 138,-222 138,-448l0 -869 276 0 0 1626z"/>
  <path id="3" class="fil2" d="M8689 2002c-13,-89 -49,-155 -109,-200 -59,-44 -142,-66 -249,-66 -105,0 -190,17 -255,53 -65,36 -97,88 -97,156 0,65 26,111 77,138 52,28 154,62 306,101 172,44 300,84 386,117 85,33 151,81 198,142 48,60 72,145 72,253 0,145 -60,268 -178,366 -119,99 -276,149 -475,149 -206,0 -367,-43 -483,-131 -116,-87 -188,-218 -214,-393l274 -41c14,113 57,198 127,254 69,56 167,84 293,84 120,0 213,-25 277,-75 65,-51 97,-113 97,-185 0,-49 -15,-88 -44,-118 -30,-30 -67,-52 -112,-67 -44,-15 -144,-41 -299,-79 -231,-55 -383,-122 -457,-200 -75,-79 -111,-173 -111,-282 0,-136 54,-248 162,-336 108,-88 253,-132 436,-132 194,0 346,38 453,115 108,76 172,189 194,340l-269 37z"/>
  <path class="fil3" d="M1685 2542l185 97c-61,119 -131,215 -211,288 -80,73 -170,129 -270,167 -100,38 -213,57 -339,57 -280,0 -499,-92 -657,-274 -157,-183 -236,-389 -236,-619 0,-216 67,-409 200,-578 170,-216 397,-324 681,-324 292,0 526,111 701,332 124,155 187,350 189,583l-1546 0c4,198 68,360 191,487 124,126 276,190 457,190 88,0 173,-15 256,-45 82,-31 153,-70 211,-120 58,-50 120,-130 188,-241zm2 -461c-30,-117 -73,-211 -129,-281 -57,-70 -132,-127 -225,-170 -92,-43 -190,-64 -292,-64 -169,0 -314,53 -436,161 -89,79 -155,197 -201,354l1283 0z"/>
 </g>
</svg>
